<svg xmlns="http://www.w3.org/2000/svg" xmlns:xlink="http://www.w3.org/1999/xlink" width="500" zoomAndPan="magnify" viewBox="0 0 375 374.999991" height="500" preserveAspectRatio="xMidYMid meet" version="1.0"><defs><g/></defs><g fill="#272727" fill-opacity="1"><g transform="translate(99.12158, 313.778054)"><g><path d="M 9.097656 -167.148438 L 65.265625 -167.148438 L 65.265625 -141.90625 L 33.65625 -141.90625 L 33.65625 -98.015625 L 56.398438 -98.015625 L 56.398438 -71.179688 L 33.65625 -71.179688 L 33.65625 -25.242188 L 65.265625 -25.242188 L 65.265625 0 L 9.097656 0 Z M 9.097656 -167.148438 "/></g></g></g><g fill="#272727" fill-opacity="1"><g transform="translate(205.550823, 313.778054)"><g><path d="M 2.273438 -26.378906 L 40.707031 -142.816406 L 7.730469 -142.816406 L 7.730469 -167.148438 L 67.3125 -167.148438 L 67.3125 -142.816406 L 28.199219 -24.332031 L 67.3125 -24.332031 L 67.3125 0 L 2.273438 0 Z M 2.273438 -26.378906 "/></g></g></g><g fill="#5271ff" fill-opacity="1"><g transform="translate(51.087131, 123.25942)"><g/></g></g><g fill="#5271ff" fill-opacity="1"><g transform="translate(94.186552, 123.25942)"><g><path d="M 0.273438 -85.242188 L 0.273438 -100.40625 L 42.894531 -100.40625 L 42.894531 -85.242188 L 28.960938 -85.242188 L 28.960938 0 L 14.207031 0 L 14.207031 -85.242188 Z M 0.273438 -85.242188 "/></g></g></g><g fill="#5271ff" fill-opacity="1"><g transform="translate(159.340249, 123.25942)"><g><path d="M 5.464844 -100.40625 L 39.207031 -100.40625 L 39.207031 -85.242188 L 20.21875 -85.242188 L 20.21875 -58.875 L 33.878906 -58.875 L 33.878906 -42.757812 L 20.21875 -42.757812 L 20.21875 -15.164062 L 39.207031 -15.164062 L 39.207031 0 L 5.464844 0 Z M 5.464844 -100.40625 "/></g></g></g><g fill="#5271ff" fill-opacity="1"><g transform="translate(223.264738, 123.25942)"><g><path d="M 20.21875 -100.40625 L 20.21875 -65.296875 L 20.765625 -65.296875 L 21.445312 -66.9375 L 33.742188 -100.40625 L 48.085938 -100.40625 L 34.5625 -67.347656 L 49.859375 0 L 35.515625 0 L 25.273438 -43.714844 L 24.863281 -45.761719 L 24.453125 -45.761719 L 23.632812 -43.714844 L 20.21875 -35.515625 L 20.21875 0 L 5.464844 0 L 5.464844 -100.40625 Z M 20.21875 -100.40625 "/></g></g></g></svg>